<svg width="278" height="200" viewBox="0 0 278 200" fill="none" xmlns="http://www.w3.org/2000/svg">
<path opacity="0.1" fill-rule="evenodd" clip-rule="evenodd" d="M33.3755 72.451C38.2231 69.2302 41.6899 64.0965 42.6984 58.1272L33.3755 72.451ZM42.9891 55.2108C42.9964 54.9803 43 54.7488 43 54.5166C43 53.7288 42.9577 52.951 42.8752 52.1852L28.0089 75.0259C28.9774 74.718 29.9163 74.3434 30.8199 73.9075L42.9891 55.2108ZM41.9679 47.9135C42.2071 48.6561 42.407 49.4162 42.5652 50.1915L26.0637 75.5447C25.3039 75.7094 24.5293 75.834 23.742 75.9161L41.9679 47.9135ZM41.3891 46.3329L22.0975 75.9728L22.1446 76.0232C21.925 76.0299 21.7046 76.0332 21.4834 76.0332C20.988 76.0332 20.4965 76.0165 20.0095 75.9835L40.5178 44.4744C40.8366 45.0775 41.1276 45.6976 41.3891 46.3329ZM38.6969 41.6048C39.0746 42.1074 39.4307 42.6272 39.764 43.1626L18.5028 75.8284C17.8742 75.7413 17.2542 75.627 16.6441 75.4868L38.6969 41.6048ZM37.8086 40.4998C37.4179 40.0452 37.0086 39.6072 36.5819 39.1868L13.5758 74.5336C14.1306 74.753 14.6968 74.95 15.2731 75.1234L37.8086 40.4998ZM34.21 37.1654C34.6811 37.5115 35.1375 37.8764 35.5783 38.2588L12.3215 73.9908C11.7919 73.7412 11.2741 73.4706 10.7692 73.1801L34.21 37.1654ZM33.0995 36.4018C32.6104 36.0875 32.1078 35.7925 31.5927 35.5179L8.20606 71.4493C8.66368 71.8086 9.13624 72.1498 9.62264 72.4718L33.0995 36.4018ZM28.7299 34.2507C29.2896 34.4508 29.8386 34.6735 30.3758 34.9176L7.16552 70.5781C6.72352 70.1838 6.29789 69.7715 5.8898 69.3425L28.7299 34.2507ZM27.4003 33.8237C26.8056 33.654 26.2005 33.5092 25.586 33.3906L25.5943 33.3995L3.83578 66.8295C4.18991 67.3361 4.56529 67.8267 4.96064 68.3001L27.4003 33.8237ZM21.5339 33C22.4164 33.002 23.2865 33.0572 24.141 33.1624L3.03299 65.593C2.6927 65.0274 2.37768 64.4448 2.0895 63.8469L21.9068 33.3995L21.5339 33ZM20.5462 33.02C19.7154 33.0556 18.8967 33.1383 18.0929 33.2655L18.218 33.3995L0.739885 60.2529C0.938824 60.9739 1.17434 61.6797 1.44432 62.3683L20.5462 33.02ZM13.8931 34.377C14.7354 34.0594 15.6028 33.7931 16.4916 33.582L0.321138 58.4264C0.158933 57.5428 0.0507055 56.6403 0 55.7225L13.8931 34.377ZM11.6305 35.3834C10.3472 36.0455 9.1391 36.8331 8.02235 37.7297L0.676145 49.0165C0.317066 50.3785 0.0881814 51.7934 0.00360432 53.2471L11.6305 35.3834Z" fill="#4373EF"/>
<path opacity="0.05" fill-rule="evenodd" clip-rule="evenodd" d="M263.898 191.793C271.001 187.074 276.081 179.552 277.558 170.806L263.898 191.793ZM277.984 166.533C277.995 166.196 278 165.857 278 165.517C278 164.363 277.938 163.223 277.817 162.101L256.036 195.565C257.455 195.114 258.831 194.565 260.154 193.927L277.984 166.533ZM276.488 155.843C276.838 156.93 277.131 158.044 277.363 159.18L253.186 196.325C252.073 196.567 250.938 196.749 249.785 196.869L276.488 155.843ZM275.64 153.527L247.376 196.952L247.445 197.026C247.123 197.036 246.8 197.041 246.476 197.041C245.75 197.041 245.03 197.016 244.317 196.968L274.363 150.804C274.83 151.688 275.257 152.596 275.64 153.527ZM271.695 146.599C272.249 147.336 272.771 148.097 273.259 148.882L242.109 196.741C241.188 196.613 240.279 196.446 239.385 196.24L271.695 146.599ZM270.394 144.98C269.822 144.314 269.222 143.673 268.597 143.057L234.89 194.844C235.703 195.165 236.532 195.454 237.377 195.708L270.394 144.98ZM265.122 140.095C265.812 140.602 266.481 141.137 267.126 141.697L233.053 194.049C232.277 193.683 231.518 193.287 230.778 192.861L265.122 140.095ZM263.495 138.976C262.778 138.516 262.042 138.084 261.287 137.681L227.023 190.325C227.693 190.852 228.386 191.351 229.098 191.823L263.495 138.976ZM257.093 135.825C257.913 136.118 258.717 136.444 259.504 136.802L225.498 189.049C224.851 188.471 224.227 187.867 223.629 187.238L257.093 135.825ZM255.145 135.199C254.273 134.951 253.387 134.738 252.487 134.565L252.499 134.578L220.62 183.557C221.139 184.299 221.689 185.018 222.268 185.711L255.145 135.199ZM246.55 133.992C247.843 133.995 249.118 134.076 250.37 134.23L219.444 181.745C218.945 180.916 218.484 180.063 218.061 179.187L247.096 134.578L246.55 133.992ZM245.103 134.022C243.886 134.074 242.686 134.195 241.508 134.381L241.692 134.578L216.084 173.921C216.376 174.978 216.721 176.012 217.116 177.021L245.103 134.022ZM235.355 136.01C236.589 135.544 237.86 135.154 239.162 134.845L215.471 171.245C215.233 169.951 215.074 168.628 215 167.284L235.355 136.01ZM232.04 137.484C230.16 138.454 228.389 139.608 226.753 140.922L215.991 157.458C215.465 159.454 215.129 161.527 215.005 163.657L232.04 137.484Z" fill="#4373EF"/>
<path opacity="0.05" fill-rule="evenodd" clip-rule="evenodd" d="M278 14.6723C277.099 15.349 275.979 15.75 274.766 15.75C271.788 15.75 269.375 13.3365 269.375 10.3594C269.375 9.99015 269.412 9.6296 269.483 9.28125H269.267C269.338 9.6296 269.375 9.99015 269.375 10.3594C269.375 13.3365 266.962 15.75 263.984 15.75C261.007 15.75 258.594 13.3365 258.594 10.3594C258.594 9.99015 258.631 9.6296 258.702 9.28125H258.486C258.557 9.6296 258.594 9.99015 258.594 10.3594C258.594 13.3365 256.18 15.75 253.203 15.75C250.226 15.75 247.812 13.3365 247.812 10.3594C247.812 9.99015 247.85 9.6296 247.92 9.28125H247.705C247.775 9.6296 247.812 9.99015 247.812 10.3594C247.812 13.3365 245.399 15.75 242.422 15.75C239.445 15.75 237.031 13.3365 237.031 10.3594C237.031 9.99015 237.068 9.6296 237.139 9.28125H236.923C236.994 9.6296 237.031 9.99015 237.031 10.3594C237.031 13.3365 234.618 15.75 231.641 15.75C228.663 15.75 226.25 13.3365 226.25 10.3594C226.25 9.99015 226.287 9.6296 226.358 9.28125H226.142C226.213 9.6296 226.25 9.99015 226.25 10.3594C226.25 13.3365 223.837 15.75 220.859 15.75C217.882 15.75 215.469 13.3365 215.469 10.3594C215.469 9.99015 215.506 9.6296 215.577 9.28125H215.361C215.432 9.6296 215.469 9.99015 215.469 10.3594C215.469 13.3365 213.055 15.75 210.078 15.75C209.709 15.75 209.348 15.7129 209 15.6422V15.8578C209.348 15.7871 209.709 15.75 210.078 15.75C213.055 15.75 215.469 18.1635 215.469 21.1406C215.469 24.1178 213.055 26.5312 210.078 26.5312C209.709 26.5312 209.348 26.4941 209 26.4234V26.6391C209.348 26.5684 209.709 26.5312 210.078 26.5312C213.055 26.5312 215.469 28.9447 215.469 31.9219C215.469 34.899 213.055 37.3125 210.078 37.3125C209.709 37.3125 209.348 37.2754 209 37.2047V37.4203C209.348 37.3496 209.709 37.3125 210.078 37.3125C213.055 37.3125 215.469 39.726 215.469 42.7031C215.469 45.6803 213.055 48.0938 210.078 48.0938C209.709 48.0938 209.348 48.0566 209 47.9859V48.2016C209.348 48.1309 209.709 48.0938 210.078 48.0938C213.055 48.0938 215.469 50.5072 215.469 53.4844C215.469 54.6979 215.068 55.8178 214.391 56.7188H216.546C215.87 55.8178 215.469 54.6979 215.469 53.4844C215.469 50.5072 217.882 48.0938 220.859 48.0938C223.837 48.0938 226.25 50.5072 226.25 53.4844C226.25 54.6979 225.849 55.8178 225.172 56.7188H227.328C226.651 55.8178 226.25 54.6979 226.25 53.4844C226.25 50.5072 228.663 48.0938 231.641 48.0938C234.618 48.0938 237.031 50.5072 237.031 53.4844C237.031 54.6979 236.63 55.8178 235.954 56.7188H238.109C237.432 55.8178 237.031 54.6979 237.031 53.4844C237.031 50.5072 239.445 48.0938 242.422 48.0938C245.399 48.0938 247.812 50.5072 247.812 53.4844C247.812 54.6979 247.411 55.8178 246.735 56.7188H248.89C248.214 55.8178 247.812 54.6979 247.812 53.4844C247.812 50.5072 250.226 48.0938 253.203 48.0938C256.18 48.0938 258.594 50.5072 258.594 53.4844C258.594 54.6979 258.193 55.8178 257.516 56.7188H259.671C258.995 55.8178 258.594 54.6979 258.594 53.4844C258.594 50.5072 261.007 48.0938 263.984 48.0938C266.962 48.0938 269.375 50.5072 269.375 53.4844C269.375 54.6979 268.974 55.8178 268.297 56.7188H270.453C269.776 55.8178 269.375 54.6979 269.375 53.4844C269.375 50.5072 271.788 48.0938 274.766 48.0938C275.979 48.0938 277.099 48.4948 278 49.1715V47.016C277.099 47.6927 275.979 48.0938 274.766 48.0938C271.788 48.0938 269.375 45.6803 269.375 42.7031C269.375 39.726 271.788 37.3125 274.766 37.3125C275.979 37.3125 277.099 37.7135 278 38.3902V36.2348C277.099 36.9115 275.979 37.3125 274.766 37.3125C271.788 37.3125 269.375 34.899 269.375 31.9219C269.375 28.9447 271.788 26.5312 274.766 26.5312C275.979 26.5312 277.099 26.9323 278 27.609V25.4535C277.099 26.1302 275.979 26.5312 274.766 26.5312C271.788 26.5312 269.375 24.1178 269.375 21.1406C269.375 18.1635 271.788 15.75 274.766 15.75C275.979 15.75 277.099 16.151 278 16.8277V14.6723ZM263.984 26.5312C266.962 26.5312 269.375 24.1178 269.375 21.1406C269.375 18.1635 266.962 15.75 263.984 15.75C261.007 15.75 258.594 18.1635 258.594 21.1406C258.594 18.1635 256.18 15.75 253.203 15.75C250.226 15.75 247.812 18.1635 247.812 21.1406C247.812 18.1635 245.399 15.75 242.422 15.75C239.445 15.75 237.031 18.1635 237.031 21.1406C237.031 18.1635 234.618 15.75 231.641 15.75C228.663 15.75 226.25 18.1635 226.25 21.1406C226.25 18.1635 223.837 15.75 220.859 15.75C217.882 15.75 215.469 18.1635 215.469 21.1406C215.469 24.1178 217.882 26.5312 220.859 26.5312C217.882 26.5312 215.469 28.9447 215.469 31.9219C215.469 34.899 217.882 37.3125 220.859 37.3125C217.882 37.3125 215.469 39.726 215.469 42.7031C215.469 45.6803 217.882 48.0938 220.859 48.0938C223.837 48.0938 226.25 45.6803 226.25 42.7031C226.25 45.6803 228.663 48.0938 231.641 48.0938C234.618 48.0938 237.031 45.6803 237.031 42.7031C237.031 45.6803 239.445 48.0938 242.422 48.0938C245.399 48.0938 247.812 45.6803 247.812 42.7031C247.812 45.6803 250.226 48.0938 253.203 48.0938C256.18 48.0938 258.594 45.6803 258.594 42.7031C258.594 45.6803 261.007 48.0938 263.984 48.0938C266.962 48.0938 269.375 45.6803 269.375 42.7031C269.375 39.726 266.962 37.3125 263.984 37.3125C266.962 37.3125 269.375 34.899 269.375 31.9219C269.375 28.9447 266.962 26.5312 263.984 26.5312ZM258.594 31.9219C258.594 28.9447 261.007 26.5312 263.984 26.5312C261.007 26.5312 258.594 24.1178 258.594 21.1406C258.594 24.1178 256.18 26.5312 253.203 26.5312C250.226 26.5312 247.812 24.1178 247.812 21.1406C247.812 24.1178 245.399 26.5312 242.422 26.5312C239.445 26.5312 237.031 24.1178 237.031 21.1406C237.031 24.1178 234.618 26.5312 231.641 26.5312C228.663 26.5312 226.25 24.1178 226.25 21.1406C226.25 24.1178 223.837 26.5312 220.859 26.5312C223.837 26.5312 226.25 28.9447 226.25 31.9219C226.25 34.899 223.837 37.3125 220.859 37.3125C223.837 37.3125 226.25 39.726 226.25 42.7031C226.25 39.726 228.663 37.3125 231.641 37.3125C234.618 37.3125 237.031 39.726 237.031 42.7031C237.031 39.726 239.445 37.3125 242.422 37.3125C245.399 37.3125 247.812 39.726 247.812 42.7031C247.812 39.726 250.226 37.3125 253.203 37.3125C256.18 37.3125 258.594 39.726 258.594 42.7031C258.594 39.726 261.007 37.3125 263.984 37.3125C261.007 37.3125 258.594 34.899 258.594 31.9219ZM247.812 31.9219C247.812 28.9447 245.399 26.5312 242.422 26.5312C239.445 26.5312 237.031 28.9447 237.031 31.9219C237.031 28.9447 234.618 26.5312 231.641 26.5312C228.663 26.5312 226.25 28.9447 226.25 31.9219C226.25 34.899 228.663 37.3125 231.641 37.3125C234.618 37.3125 237.031 34.899 237.031 31.9219C237.031 34.899 239.445 37.3125 242.422 37.3125C245.399 37.3125 247.812 34.899 247.812 31.9219ZM247.812 31.9219C247.812 34.899 250.226 37.3125 253.203 37.3125C256.18 37.3125 258.594 34.899 258.594 31.9219C258.594 28.9447 256.18 26.5312 253.203 26.5312C250.226 26.5312 247.812 28.9447 247.812 31.9219Z" fill="#4373EF"/>
<path opacity="0.03" fill-rule="evenodd" clip-rule="evenodd" d="M98.625 142H96.8753C96.0771 143.063 94.8063 143.75 93.375 143.75C91.9437 143.75 90.6729 143.063 89.8747 142H88.125V143.75H79.375V142H77.6253C76.8271 143.063 75.5563 143.75 74.125 143.75C72.6937 143.75 71.4229 143.063 70.6247 142H68.875V143.75H61V145.5H68.875V154.25H61V156H68.875V164.75H61V166.5H68.875V175.25H61V177H68.875V180.5H69.8375C70.2429 178.503 72.0084 177 74.125 177C76.2416 177 78.0071 178.503 78.4125 180.5H79.375V177H88.125V180.5H89.0875C89.4929 178.503 91.2584 177 93.375 177C95.4916 177 97.2571 178.503 97.6625 180.5H98.625V177H107.375V180.5H108.338C108.743 178.503 110.508 177 112.625 177C114.742 177 116.507 178.503 116.912 180.5H117V170.875V160.375V149.875V142H116.125C115.327 143.063 114.056 143.75 112.625 143.75C111.194 143.75 109.923 143.063 109.125 142H107.375V143.75H98.625V142ZM117 149.875C117 152.291 115.041 154.25 112.625 154.25C110.209 154.25 108.25 152.291 108.25 149.875C108.25 147.459 110.209 145.5 112.625 145.5C115.041 145.5 117 147.459 117 149.875ZM117 160.375C117 162.791 115.041 164.75 112.625 164.75C110.209 164.75 108.25 162.791 108.25 160.375C108.25 157.959 110.209 156 112.625 156C115.041 156 117 157.959 117 160.375ZM117 170.875C117 173.291 115.041 175.25 112.625 175.25C110.209 175.25 108.25 173.291 108.25 170.875C108.25 168.459 110.209 166.5 112.625 166.5C115.041 166.5 117 168.459 117 170.875ZM74.125 154.25C76.5412 154.25 78.5 152.291 78.5 149.875C78.5 147.459 76.5412 145.5 74.125 145.5C71.7088 145.5 69.75 147.459 69.75 149.875C69.75 152.291 71.7088 154.25 74.125 154.25ZM78.5 160.375C78.5 162.791 76.5412 164.75 74.125 164.75C71.7088 164.75 69.75 162.791 69.75 160.375C69.75 157.959 71.7088 156 74.125 156C76.5412 156 78.5 157.959 78.5 160.375ZM74.125 175.25C76.5412 175.25 78.5 173.291 78.5 170.875C78.5 168.459 76.5412 166.5 74.125 166.5C71.7088 166.5 69.75 168.459 69.75 170.875C69.75 173.291 71.7088 175.25 74.125 175.25ZM97.75 149.875C97.75 152.291 95.7912 154.25 93.375 154.25C90.9588 154.25 89 152.291 89 149.875C89 147.459 90.9588 145.5 93.375 145.5C95.7912 145.5 97.75 147.459 97.75 149.875ZM93.375 164.75C95.7912 164.75 97.75 162.791 97.75 160.375C97.75 157.959 95.7912 156 93.375 156C90.9588 156 89 157.959 89 160.375C89 162.791 90.9588 164.75 93.375 164.75ZM97.75 170.875C97.75 173.291 95.7912 175.25 93.375 175.25C90.9588 175.25 89 173.291 89 170.875C89 168.459 90.9588 166.5 93.375 166.5C95.7912 166.5 97.75 168.459 97.75 170.875ZM88.125 145.5H79.375V154.25H88.125V145.5ZM79.375 156H88.125V164.75H79.375V156ZM88.125 166.5H79.375V175.25H88.125V166.5ZM98.625 145.5H107.375V154.25H98.625V145.5ZM107.375 156H98.625V164.75H107.375V156ZM98.625 166.5H107.375V175.25H98.625V166.5Z" fill="#4373EF"/>
<path d="M126 68.25L191.625 103.875L156 107.625L137.241 139.5L126 68.25Z" stroke="#4373EF" stroke-width="4" stroke-linejoin="round"/>
<circle cx="154" cy="100" r="100" fill="#4373EF" fill-opacity="0.02"/>
</svg>
