<svg width="278" height="200" viewBox="0 0 278 200" fill="none" xmlns="http://www.w3.org/2000/svg">
<path opacity="0.1" fill-rule="evenodd" clip-rule="evenodd" d="M33.3755 72.4511C38.2231 69.2303 41.6899 64.0965 42.6985 58.1272L33.3755 72.4511ZM42.9891 55.2108C42.9964 54.9803 43.0001 54.7489 43.0001 54.5166C43.0001 53.7289 42.9578 52.951 42.8753 52.1852L28.0089 75.026C28.9775 74.7181 29.9163 74.3435 30.82 73.9075L42.9891 55.2108ZM41.968 47.9136C42.2071 48.6561 42.4071 49.4163 42.5653 50.1916L26.0637 75.5447C25.304 75.7094 24.5293 75.834 23.742 75.9161L41.968 47.9136ZM41.3892 46.333L22.0975 75.9728L22.1447 76.0233C21.9251 76.0299 21.7047 76.0333 21.4835 76.0333C20.9881 76.0333 20.4966 76.0165 20.0095 75.9836L40.5178 44.4745C40.8367 45.0776 41.1277 45.6976 41.3892 46.333ZM38.697 41.6048C39.0746 42.1075 39.4308 42.6272 39.764 43.1627L18.5029 75.8285C17.8742 75.7414 17.2543 75.6271 16.6442 75.4869L38.697 41.6048ZM37.8086 40.4998C37.418 40.0453 37.0087 39.6072 36.5819 39.1869L13.5758 74.5337C14.1307 74.753 14.6968 74.95 15.2732 75.1235L37.8086 40.4998ZM34.21 37.1655C34.6811 37.5116 35.1376 37.8764 35.5783 38.2589L12.3216 73.9908C11.7919 73.7412 11.2741 73.4706 10.7692 73.1802L34.21 37.1655ZM33.0995 36.4018C32.6105 36.0876 32.1078 35.7926 31.5927 35.5179L8.20611 71.4494C8.66374 71.8087 9.13629 72.1499 9.62269 72.4718L33.0995 36.4018ZM28.73 34.2507C29.2897 34.4509 29.8387 34.6736 30.3758 34.9177L7.16557 70.5782C6.72357 70.1839 6.29795 69.7716 5.88985 69.3425L28.73 34.2507ZM27.4003 33.8238C26.8057 33.654 26.2005 33.5093 25.5861 33.3907L25.5944 33.3995L3.83583 66.8295C4.18996 67.3361 4.56534 67.8268 4.96069 68.3002L27.4003 33.8238ZM21.5339 33C22.4164 33.0021 23.2865 33.0572 24.1411 33.1625L3.03304 65.593C2.69275 65.0274 2.37773 64.4449 2.08955 63.8469L21.9068 33.3995L21.5339 33ZM20.5462 33.02C19.7154 33.0556 18.8968 33.1384 18.093 33.2656L18.218 33.3995L0.739936 60.253C0.938875 60.974 1.1744 61.6798 1.44438 62.3683L20.5462 33.02ZM13.8932 34.377C14.7355 34.0594 15.6029 33.7931 16.4917 33.582L0.32119 58.4265C0.158984 57.5429 0.0507567 56.6404 5.11743e-05 55.7226L13.8932 34.377ZM11.6306 35.3834C10.3473 36.0456 9.13915 36.8331 8.0224 37.7298L0.676196 49.0165C0.317118 50.3786 0.0882325 51.7935 0.00365548 53.2471L11.6306 35.3834Z" fill="#4373EF"/>
<path opacity="0.05" fill-rule="evenodd" clip-rule="evenodd" d="M263.899 191.793C271.001 187.074 276.081 179.552 277.558 170.806L263.899 191.793ZM277.984 166.533C277.995 166.196 278 165.857 278 165.517C278 164.363 277.938 163.223 277.817 162.101L256.036 195.565C257.455 195.114 258.831 194.565 260.154 193.927L277.984 166.533ZM276.488 155.843C276.838 156.93 277.131 158.044 277.363 159.18L253.186 196.325C252.073 196.567 250.938 196.749 249.785 196.869L276.488 155.843ZM275.64 153.527L247.376 196.952L247.445 197.026C247.123 197.036 246.8 197.041 246.476 197.041C245.75 197.041 245.03 197.017 244.317 196.968L274.363 150.804C274.831 151.688 275.257 152.596 275.64 153.527ZM271.695 146.599C272.249 147.336 272.771 148.097 273.259 148.882L242.109 196.741C241.188 196.613 240.279 196.446 239.385 196.24L271.695 146.599ZM270.394 144.98C269.822 144.314 269.222 143.673 268.597 143.057L234.89 194.844C235.703 195.165 236.532 195.454 237.377 195.708L270.394 144.98ZM265.122 140.095C265.812 140.602 266.481 141.137 267.127 141.697L233.053 194.049C232.277 193.683 231.518 193.287 230.778 192.861L265.122 140.095ZM263.495 138.976C262.778 138.516 262.042 138.084 261.287 137.681L227.023 190.325C227.693 190.852 228.386 191.352 229.099 191.823L263.495 138.976ZM257.093 135.825C257.913 136.118 258.717 136.444 259.504 136.802L225.498 189.049C224.851 188.471 224.227 187.867 223.629 187.238L257.093 135.825ZM255.145 135.199C254.273 134.951 253.387 134.739 252.487 134.565L252.499 134.578L220.62 183.557C221.139 184.299 221.689 185.018 222.268 185.711L255.145 135.199ZM246.55 133.992C247.843 133.995 249.118 134.076 250.37 134.23L219.444 181.745C218.945 180.916 218.484 180.063 218.062 179.187L247.096 134.578L246.55 133.992ZM245.103 134.022C243.886 134.074 242.686 134.195 241.508 134.381L241.692 134.578L216.084 173.921C216.376 174.978 216.721 176.012 217.116 177.021L245.103 134.022ZM235.355 136.01C236.589 135.544 237.86 135.154 239.162 134.845L215.471 171.245C215.233 169.951 215.074 168.628 215 167.284L235.355 136.01ZM232.04 137.484C230.16 138.454 228.39 139.608 226.753 140.922L215.991 157.458C215.465 159.454 215.129 161.527 215.005 163.657L232.04 137.484Z" fill="#4373EF"/>
<path opacity="0.05" fill-rule="evenodd" clip-rule="evenodd" d="M278 14.6723C277.099 15.349 275.979 15.75 274.766 15.75C271.788 15.75 269.375 13.3365 269.375 10.3594C269.375 9.99015 269.412 9.6296 269.483 9.28125H269.267C269.338 9.6296 269.375 9.99015 269.375 10.3594C269.375 13.3365 266.962 15.75 263.984 15.75C261.007 15.75 258.594 13.3365 258.594 10.3594C258.594 9.99015 258.631 9.6296 258.702 9.28125H258.486C258.557 9.6296 258.594 9.99015 258.594 10.3594C258.594 13.3365 256.18 15.75 253.203 15.75C250.226 15.75 247.812 13.3365 247.812 10.3594C247.812 9.99015 247.85 9.6296 247.92 9.28125H247.705C247.775 9.6296 247.812 9.99015 247.812 10.3594C247.812 13.3365 245.399 15.75 242.422 15.75C239.445 15.75 237.031 13.3365 237.031 10.3594C237.031 9.99015 237.068 9.6296 237.139 9.28125H236.923C236.994 9.6296 237.031 9.99015 237.031 10.3594C237.031 13.3365 234.618 15.75 231.641 15.75C228.663 15.75 226.25 13.3365 226.25 10.3594C226.25 9.99015 226.287 9.6296 226.358 9.28125H226.142C226.213 9.6296 226.25 9.99015 226.25 10.3594C226.25 13.3365 223.837 15.75 220.859 15.75C217.882 15.75 215.469 13.3365 215.469 10.3594C215.469 9.99015 215.506 9.6296 215.577 9.28125H215.361C215.432 9.6296 215.469 9.99015 215.469 10.3594C215.469 13.3365 213.055 15.75 210.078 15.75C209.709 15.75 209.348 15.7129 209 15.6422V15.8578C209.348 15.7871 209.709 15.75 210.078 15.75C213.055 15.75 215.469 18.1635 215.469 21.1406C215.469 24.1178 213.055 26.5312 210.078 26.5312C209.709 26.5312 209.348 26.4941 209 26.4234V26.6391C209.348 26.5684 209.709 26.5312 210.078 26.5312C213.055 26.5312 215.469 28.9447 215.469 31.9219C215.469 34.899 213.055 37.3125 210.078 37.3125C209.709 37.3125 209.348 37.2754 209 37.2047V37.4203C209.348 37.3496 209.709 37.3125 210.078 37.3125C213.055 37.3125 215.469 39.726 215.469 42.7031C215.469 45.6803 213.055 48.0938 210.078 48.0938C209.709 48.0938 209.348 48.0566 209 47.9859V48.2016C209.348 48.1309 209.709 48.0938 210.078 48.0938C213.055 48.0938 215.469 50.5072 215.469 53.4844C215.469 54.6979 215.068 55.8178 214.391 56.7188H216.546C215.87 55.8178 215.469 54.6979 215.469 53.4844C215.469 50.5072 217.882 48.0938 220.859 48.0938C223.837 48.0938 226.25 50.5072 226.25 53.4844C226.25 54.6979 225.849 55.8178 225.172 56.7188H227.328C226.651 55.8178 226.25 54.6979 226.25 53.4844C226.25 50.5072 228.663 48.0938 231.641 48.0938C234.618 48.0938 237.031 50.5072 237.031 53.4844C237.031 54.6979 236.63 55.8178 235.954 56.7188H238.109C237.432 55.8178 237.031 54.6979 237.031 53.4844C237.031 50.5072 239.445 48.0938 242.422 48.0938C245.399 48.0938 247.812 50.5072 247.812 53.4844C247.812 54.6979 247.411 55.8178 246.735 56.7188H248.89C248.214 55.8178 247.812 54.6979 247.812 53.4844C247.812 50.5072 250.226 48.0938 253.203 48.0938C256.18 48.0938 258.594 50.5072 258.594 53.4844C258.594 54.6979 258.193 55.8178 257.516 56.7188H259.671C258.995 55.8178 258.594 54.6979 258.594 53.4844C258.594 50.5072 261.007 48.0938 263.984 48.0938C266.962 48.0938 269.375 50.5072 269.375 53.4844C269.375 54.6979 268.974 55.8178 268.297 56.7188H270.453C269.776 55.8178 269.375 54.6979 269.375 53.4844C269.375 50.5072 271.788 48.0938 274.766 48.0938C275.979 48.0938 277.099 48.4948 278 49.1715V47.016C277.099 47.6927 275.979 48.0938 274.766 48.0938C271.788 48.0938 269.375 45.6803 269.375 42.7031C269.375 39.726 271.788 37.3125 274.766 37.3125C275.979 37.3125 277.099 37.7135 278 38.3902V36.2348C277.099 36.9115 275.979 37.3125 274.766 37.3125C271.788 37.3125 269.375 34.899 269.375 31.9219C269.375 28.9447 271.788 26.5312 274.766 26.5312C275.979 26.5312 277.099 26.9323 278 27.609V25.4535C277.099 26.1302 275.979 26.5312 274.766 26.5312C271.788 26.5312 269.375 24.1178 269.375 21.1406C269.375 18.1635 271.788 15.75 274.766 15.75C275.979 15.75 277.099 16.151 278 16.8277V14.6723ZM263.984 26.5312C266.962 26.5312 269.375 24.1178 269.375 21.1406C269.375 18.1635 266.962 15.75 263.984 15.75C261.007 15.75 258.594 18.1635 258.594 21.1406C258.594 18.1635 256.18 15.75 253.203 15.75C250.226 15.75 247.812 18.1635 247.812 21.1406C247.812 18.1635 245.399 15.75 242.422 15.75C239.445 15.75 237.031 18.1635 237.031 21.1406C237.031 18.1635 234.618 15.75 231.641 15.75C228.663 15.75 226.25 18.1635 226.25 21.1406C226.25 18.1635 223.837 15.75 220.859 15.75C217.882 15.75 215.469 18.1635 215.469 21.1406C215.469 24.1178 217.882 26.5312 220.859 26.5312C217.882 26.5312 215.469 28.9447 215.469 31.9219C215.469 34.899 217.882 37.3125 220.859 37.3125C217.882 37.3125 215.469 39.726 215.469 42.7031C215.469 45.6803 217.882 48.0938 220.859 48.0938C223.837 48.0938 226.25 45.6803 226.25 42.7031C226.25 45.6803 228.663 48.0938 231.641 48.0938C234.618 48.0938 237.031 45.6803 237.031 42.7031C237.031 45.6803 239.445 48.0938 242.422 48.0938C245.399 48.0938 247.812 45.6803 247.812 42.7031C247.812 45.6803 250.226 48.0938 253.203 48.0938C256.18 48.0938 258.594 45.6803 258.594 42.7031C258.594 45.6803 261.007 48.0938 263.984 48.0938C266.962 48.0938 269.375 45.6803 269.375 42.7031C269.375 39.726 266.962 37.3125 263.984 37.3125C266.962 37.3125 269.375 34.899 269.375 31.9219C269.375 28.9447 266.962 26.5312 263.984 26.5312ZM258.594 31.9219C258.594 28.9447 261.007 26.5312 263.984 26.5312C261.007 26.5312 258.594 24.1178 258.594 21.1406C258.594 24.1178 256.18 26.5312 253.203 26.5312C250.226 26.5312 247.812 24.1178 247.812 21.1406C247.812 24.1178 245.399 26.5312 242.422 26.5312C239.445 26.5312 237.031 24.1178 237.031 21.1406C237.031 24.1178 234.618 26.5312 231.641 26.5312C228.663 26.5312 226.25 24.1178 226.25 21.1406C226.25 24.1178 223.837 26.5312 220.859 26.5312C223.837 26.5312 226.25 28.9447 226.25 31.9219C226.25 34.899 223.837 37.3125 220.859 37.3125C223.837 37.3125 226.25 39.726 226.25 42.7031C226.25 39.726 228.663 37.3125 231.641 37.3125C234.618 37.3125 237.031 39.726 237.031 42.7031C237.031 39.726 239.445 37.3125 242.422 37.3125C245.399 37.3125 247.812 39.726 247.812 42.7031C247.812 39.726 250.226 37.3125 253.203 37.3125C256.18 37.3125 258.594 39.726 258.594 42.7031C258.594 39.726 261.007 37.3125 263.984 37.3125C261.007 37.3125 258.594 34.899 258.594 31.9219ZM247.812 31.9219C247.812 28.9447 245.399 26.5312 242.422 26.5312C239.445 26.5312 237.031 28.9447 237.031 31.9219C237.031 28.9447 234.618 26.5312 231.641 26.5312C228.663 26.5312 226.25 28.9447 226.25 31.9219C226.25 34.899 228.663 37.3125 231.641 37.3125C234.618 37.3125 237.031 34.899 237.031 31.9219C237.031 34.899 239.445 37.3125 242.422 37.3125C245.399 37.3125 247.812 34.899 247.812 31.9219ZM247.812 31.9219C247.812 34.899 250.226 37.3125 253.203 37.3125C256.18 37.3125 258.594 34.899 258.594 31.9219C258.594 28.9447 256.18 26.5312 253.203 26.5312C250.226 26.5312 247.812 28.9447 247.812 31.9219Z" fill="#4373EF"/>
<path opacity="0.03" fill-rule="evenodd" clip-rule="evenodd" d="M98.625 142H96.8753C96.0771 143.063 94.8063 143.75 93.375 143.75C91.9437 143.75 90.6729 143.063 89.8747 142H88.125V143.75H79.375V142H77.6253C76.8271 143.063 75.5563 143.75 74.125 143.75C72.6937 143.75 71.4229 143.063 70.6247 142H68.875V143.75H61V145.5H68.875V154.25H61V156H68.875V164.75H61V166.5H68.875V175.25H61V177H68.875V180.5H69.8375C70.2429 178.503 72.0084 177 74.125 177C76.2416 177 78.0071 178.503 78.4125 180.5H79.375V177H88.125V180.5H89.0875C89.4929 178.503 91.2584 177 93.375 177C95.4916 177 97.2571 178.503 97.6625 180.5H98.625V177H107.375V180.5H108.338C108.743 178.503 110.508 177 112.625 177C114.742 177 116.507 178.503 116.912 180.5H117V170.875V160.375V149.875V142H116.125C115.327 143.063 114.056 143.75 112.625 143.75C111.194 143.75 109.923 143.063 109.125 142H107.375V143.75H98.625V142ZM117 149.875C117 152.291 115.041 154.25 112.625 154.25C110.209 154.25 108.25 152.291 108.25 149.875C108.25 147.459 110.209 145.5 112.625 145.5C115.041 145.5 117 147.459 117 149.875ZM117 160.375C117 162.791 115.041 164.75 112.625 164.75C110.209 164.75 108.25 162.791 108.25 160.375C108.25 157.959 110.209 156 112.625 156C115.041 156 117 157.959 117 160.375ZM117 170.875C117 173.291 115.041 175.25 112.625 175.25C110.209 175.25 108.25 173.291 108.25 170.875C108.25 168.459 110.209 166.5 112.625 166.5C115.041 166.5 117 168.459 117 170.875ZM74.125 154.25C76.5412 154.25 78.5 152.291 78.5 149.875C78.5 147.459 76.5412 145.5 74.125 145.5C71.7088 145.5 69.75 147.459 69.75 149.875C69.75 152.291 71.7088 154.25 74.125 154.25ZM78.5 160.375C78.5 162.791 76.5412 164.75 74.125 164.75C71.7088 164.75 69.75 162.791 69.75 160.375C69.75 157.959 71.7088 156 74.125 156C76.5412 156 78.5 157.959 78.5 160.375ZM74.125 175.25C76.5412 175.25 78.5 173.291 78.5 170.875C78.5 168.459 76.5412 166.5 74.125 166.5C71.7088 166.5 69.75 168.459 69.75 170.875C69.75 173.291 71.7088 175.25 74.125 175.25ZM97.75 149.875C97.75 152.291 95.7912 154.25 93.375 154.25C90.9588 154.25 89 152.291 89 149.875C89 147.459 90.9588 145.5 93.375 145.5C95.7912 145.5 97.75 147.459 97.75 149.875ZM93.375 164.75C95.7912 164.75 97.75 162.791 97.75 160.375C97.75 157.959 95.7912 156 93.375 156C90.9588 156 89 157.959 89 160.375C89 162.791 90.9588 164.75 93.375 164.75ZM97.75 170.875C97.75 173.291 95.7912 175.25 93.375 175.25C90.9588 175.25 89 173.291 89 170.875C89 168.459 90.9588 166.5 93.375 166.5C95.7912 166.5 97.75 168.459 97.75 170.875ZM88.125 145.5H79.375V154.25H88.125V145.5ZM79.375 156H88.125V164.75H79.375V156ZM88.125 166.5H79.375V175.25H88.125V166.5ZM98.625 145.5H107.375V154.25H98.625V145.5ZM107.375 156H98.625V164.75H107.375V156ZM98.625 166.5H107.375V175.25H98.625V166.5Z" fill="#4373EF"/>
<path d="M132.192 118.2V119.325C132.192 119.449 132.293 119.55 132.417 119.55H133.317C133.377 119.55 133.434 119.526 133.476 119.484C133.518 119.442 133.542 119.385 133.542 119.325V118.2H133.992V119.325C133.992 119.449 134.093 119.55 134.217 119.55H135.117C135.177 119.55 135.234 119.526 135.276 119.484C135.318 119.442 135.342 119.385 135.342 119.325V118.2H135.418C137.211 118.2 138.492 117.27 138.492 115.662C138.492 114.31 137.586 113.571 136.525 113.466V113.387C137.398 113.169 138.039 112.51 138.039 111.416C138.039 110.037 137.004 109.2 135.425 109.2H135.342V108.075C135.342 108.015 135.318 107.958 135.276 107.916C135.234 107.874 135.177 107.85 135.117 107.85H134.217C134.157 107.85 134.1 107.874 134.058 107.916C134.016 107.958 133.992 108.015 133.992 108.075V109.2H133.476V108.075C133.476 108.015 133.453 107.958 133.411 107.916C133.368 107.874 133.311 107.85 133.251 107.85H132.417C132.357 107.85 132.3 107.874 132.258 107.916C132.216 107.958 132.192 108.015 132.192 108.075V109.2L130.394 109.21C130.334 109.21 130.277 109.234 130.235 109.276C130.193 109.318 130.169 109.375 130.169 109.435V110.325C130.169 110.448 130.268 110.55 130.392 110.55L131.072 110.545C131.25 110.547 131.42 110.618 131.546 110.745C131.672 110.871 131.742 111.042 131.742 111.22V116.175C131.742 116.354 131.671 116.526 131.544 116.652C131.418 116.779 131.246 116.85 131.067 116.85L130.394 116.86C130.334 116.86 130.277 116.884 130.235 116.926C130.193 116.968 130.169 117.025 130.169 117.085V117.985C130.169 118.109 130.27 118.21 130.394 118.21L132.192 118.2ZM133.476 110.538H135.024C135.839 110.538 136.318 110.986 136.318 111.719C136.318 112.503 135.8 112.945 134.628 112.945H133.476V110.538ZM133.476 114.184H135.132C136.156 114.184 136.713 114.706 136.713 115.556C136.713 116.413 136.149 116.861 134.771 116.861H133.476V114.184Z" fill="#4373EF"/>
<g clip-path="url(#clip0_234_62)">
<path d="M154.209 84.8816L149.789 82.273L154.207 88.5005L158.629 82.273L154.207 84.8816H154.209ZM154.275 74.1001L149.857 81.4337L154.275 84.0469L158.695 81.4364L154.275 74.1001Z" fill="#4373EF"/>
</g>
<path d="M116.5 123.634V82.1503L152.471 103.749V144.402L116.5 123.634ZM155.471 144.402V103.749L191.442 82.1503V123.634L155.471 144.402ZM117.956 79.5253L153.971 58.7321L189.986 79.5253L153.971 101.15L117.956 79.5253Z" stroke="#4373EF" stroke-width="3"/>
<g clip-path="url(#clip1_234_62)">
<path d="M174.974 115.352L176.605 116.982L172.193 121.393L167.782 116.982L169.412 115.352L172.193 118.148L174.974 115.352V115.352ZM177.757 112.57L179.4 114.2L177.771 115.83L176.141 114.2L177.757 112.57V112.57ZM172.193 112.57L173.823 114.186L172.193 115.816L170.563 114.2L172.193 112.571L172.193 112.57ZM166.63 112.57L168.246 114.2L166.631 115.815L165 114.2L166.63 112.57V112.57ZM172.194 107.006L176.605 111.404L174.975 113.033L172.193 110.251L169.412 113.047L167.782 111.418L172.193 107.007L172.194 107.006Z" fill="#4373EF"/>
</g>
<circle cx="154" cy="100" r="100" fill="#4373EF" fill-opacity="0.02"/>
<defs>
<clipPath id="clip0_234_62">
<rect x="147.042" y="74.1001" width="14.4" height="14.4" fill="white"/>
</clipPath>
<clipPath id="clip1_234_62">
<rect width="14.4" height="14.4" fill="white" transform="translate(165 107)"/>
</clipPath>
</defs>
</svg>
