<svg width="119" height="41" viewBox="0 0 119 41" fill="none" xmlns="http://www.w3.org/2000/svg">
<g clip-path="url(#clip0_138_114)">
<path d="M11.038 8.92664L0.566406 40.1021L8.08831 35.9021C15.7648 31.6156 21.4967 24.6159 24.1207 16.3232L27.5591 5.45724L11.038 8.92664Z" fill="#142248"/>
<path d="M27.5591 5.45724C28.7449 1.70976 24.3095 -1.30263 21.1695 1.11762L11.0381 8.92665L27.5591 5.45724Z" fill="#142248"/>
<path d="M24.1207 16.3232C21.4967 24.6159 15.7648 31.6156 8.08831 35.9021L0.566406 40.1021L17.169 39.3991C23.8685 39.1154 29.6664 34.7243 31.66 28.4238L36.0346 14.599C37.6908 9.36512 33.007 4.31316 27.5591 5.45722L24.1207 16.3232Z" fill="#4373EF"/>
<path d="M48.4708 32.4001C46.5112 32.4001 44.9358 31.8613 43.7447 30.7837C42.6902 29.7971 42.1102 28.4432 42.0045 26.7219C41.9845 26.3972 42.2506 26.1329 42.5759 26.1329H45.0984C45.419 26.1329 45.6762 26.3902 45.7163 26.7083C45.7998 27.3699 46.0071 27.9154 46.3383 28.3449C46.761 28.8931 47.443 29.1673 48.3843 29.1673C49.2681 29.1673 49.9117 28.9121 50.3151 28.4016C50.7186 27.8723 50.9203 27.1822 50.9203 26.3315V12.7983C50.9203 12.4729 51.1841 12.2092 51.5094 12.2092H54.0198C54.3452 12.2092 54.6089 12.4729 54.6089 12.7983V26.3315C54.6089 28.2787 54.0518 29.7817 52.9375 30.8404C51.8424 31.8802 50.3535 32.4001 48.4708 32.4001ZM57.2129 32.0598C56.8023 32.0598 56.5177 31.6503 56.6607 31.2655L63.6 12.5931C63.6858 12.3623 63.906 12.2092 64.1522 12.2092H67.4828C67.729 12.2092 67.9493 12.3623 68.035 12.5931L74.9746 31.2655C75.1176 31.6503 74.8329 32.0598 74.4223 32.0598H71.7684C71.5184 32.0598 71.2955 31.9019 71.2126 31.666L69.8752 27.8596C69.7923 27.6237 69.5695 27.4658 69.3194 27.4658H62.2849C62.036 27.4658 61.814 27.6222 61.7302 27.8565L60.3666 31.6691C60.2828 31.9034 60.0608 32.0598 59.8119 32.0598H57.2129ZM63.1553 23.845C63.0201 24.2282 63.3045 24.63 63.7109 24.63H67.8931C68.3003 24.63 68.5847 24.2268 68.448 23.8432L66.3464 17.9435C66.1602 17.4207 65.4204 17.4219 65.2359 17.9453L63.1553 23.845ZM84.7768 32.4001C83.2976 32.4001 81.962 32.1165 80.7715 31.5494C79.5803 30.9633 78.6289 30.0842 77.9184 28.9121C77.2268 27.7399 76.881 26.2558 76.881 24.4598V12.7983C76.881 12.4729 77.1447 12.2092 77.4701 12.2092H79.9803C80.3056 12.2092 80.5694 12.4729 80.5694 12.7983V24.4882C80.5694 26.0385 80.9441 27.1917 81.6934 27.9479C82.4616 28.7041 83.5185 29.0822 84.8634 29.0822C86.1889 29.0822 87.2357 28.7041 88.0045 27.9479C88.7727 27.1917 89.1574 26.0385 89.1574 24.4882V12.7983C89.1574 12.4729 89.4212 12.2092 89.7465 12.2092H92.2567C92.5821 12.2092 92.8458 12.4729 92.8458 12.7983V24.4598C92.8458 26.2558 92.4806 27.7399 91.7507 28.9121C91.0208 30.0842 90.0411 30.9633 88.8116 31.5494C87.601 32.1165 86.2561 32.4001 84.7768 32.4001ZM97.2005 32.0598C96.8752 32.0598 96.6114 31.796 96.6114 31.4707V12.7983C96.6114 12.4729 96.8752 12.2092 97.2005 12.2092H99.7107C100.036 12.2092 100.3 12.4729 100.3 12.7983V31.4707C100.3 31.796 100.036 32.0598 99.7107 32.0598H97.2005ZM109.496 32.0598C109.17 32.0598 108.907 31.796 108.907 31.4707V15.7192C108.907 15.3938 108.643 15.1301 108.318 15.1301H103.617C103.292 15.1301 103.028 14.8663 103.028 14.5409V12.7983C103.028 12.4729 103.292 12.2092 103.617 12.2092H117.914C118.24 12.2092 118.503 12.4729 118.503 12.7983V14.5409C118.503 14.8663 118.24 15.1301 117.914 15.1301H113.185C112.859 15.1301 112.596 15.3938 112.596 15.7192V31.4707C112.596 31.796 112.332 32.0598 112.007 32.0598H109.496Z" fill="#142248"/>
</g>
<defs>
<clipPath id="clip0_138_114">
<rect width="119" height="40" fill="white" transform="translate(0 0.175751)"/>
</clipPath>
</defs>
</svg>
